<svg id="Capa_1" enable-background="new 0 0 512 512" height="64" viewBox="0 0 512 512" width="64" xmlns="http://www.w3.org/2000/svg"><g><path d="m56.048 471h399.903c36.078 0 58.098-39.366 39.026-69.767l-199.951-338.72c-17.995-28.683-60.056-28.683-78.051 0l-199.952 338.72c-19.072 30.401 2.948 69.767 39.025 69.767z" fill="#ff7a7a"/><path d="m256 91-195 330h390z" fill="#fff" stroke="#fff" stroke-miterlimit="10"/><circle cx="256" cy="360" fill="#c5d3de" r="20"/><path d="m276 217c0 11.046-8.954 83-20 83s-20-71.954-20-83 8.954-20 20-20 20 8.954 20 20z" fill="#c5d3de"/><g><path d="m55.96 481c-7.85 0-15.42-1.56-22.5-4.65-6.72-2.94-12.69-7.1-17.75-12.37-4.96-5.16-8.85-11.14-11.56-17.75-2.75-6.72-4.14-13.77-4.15-20.97-.01-10.23 2.92-20.33 8.48-29.23l199.88-338.6.14-.23c5.19-8.28 12.44-15.06 20.97-19.61 8.09-4.31 17.21-6.59 26.38-6.59h.15.15c9.17 0 18.29 2.28 26.38 6.59 8.53 4.55 15.78 11.33 20.97 19.61l.14.23 127.46 215.92v.01c1.36 2.3 1.74 4.99 1.07 7.57-.67 2.59-2.3 4.76-4.6 6.12-1.54.91-3.29 1.39-5.07 1.39-3.53 0-6.83-1.89-8.62-4.92l-127.36-215.75c-6.7-10.61-17.83-16.72-30.52-16.77-12.66.05-23.77 6.14-30.48 16.7l-199.89 338.62-.14.23c-3.63 5.81-5.48 12.1-5.49 18.71-.01 9.11 3.68 18.17 10.12 24.85 6.88 7.1 15.85 10.87 25.93 10.89h399.9c10.08-.02 19.04-3.79 25.92-10.89 6.45-6.68 10.14-15.74 10.13-24.85-.01-6.6-1.86-12.9-5.5-18.71l-.13-.23-26.74-45.3c-1.36-2.3-1.74-4.99-1.07-7.58.66-2.58 2.3-4.76 4.6-6.11 1.54-.91 3.29-1.39 5.07-1.39 3.53 0 6.83 1.88 8.62 4.91l26.69 45.22c5.55 8.88 8.47 18.97 8.46 29.19-.01 7.2-1.4 14.25-4.15 20.97-2.71 6.61-6.6 12.59-11.57 17.75-5.05 5.27-11.02 9.43-17.74 12.37-7.08 3.08-14.65 4.65-22.5 4.65z"/><path d="m451 431h-390c-3.591 0-6.906-1.925-8.686-5.044-1.779-3.119-1.75-6.952.076-10.043l195-330c1.8-3.045 5.073-4.913 8.61-4.913s6.81 1.868 8.609 4.913l195 330c1.827 3.091 1.855 6.925.076 10.043-1.779 3.119-5.094 5.044-8.685 5.044zm-372.476-20h354.951l-177.475-300.343z"/><path d="m256 390c-16.542 0-30-13.458-30-30s13.458-30 30-30 30 13.458 30 30-13.458 30-30 30zm0-40c-5.514 0-10 4.486-10 10s4.486 10 10 10 10-4.486 10-10-4.486-10-10-10z"/><path d="m256 310c-10.959 0-15.357-12.717-17.236-18.147-2.34-6.766-4.606-15.976-6.736-27.374-3.735-19.987-6.028-41.124-6.028-47.479 0-16.542 13.458-30 30-30s30 13.458 30 30c0 6.355-2.293 27.492-6.028 47.479-2.13 11.398-4.396 20.608-6.736 27.374-1.879 5.43-6.276 18.147-17.236 18.147zm0-103c-5.514 0-10 4.486-10 10 0 3.817 1.62 20.363 4.715 38.377 1.937 11.272 3.753 19.136 5.285 24.584 1.531-5.449 3.348-13.312 5.285-24.584 3.095-18.014 4.715-34.56 4.715-38.377 0-5.514-4.486-10-10-10z"/><circle cx="445.357" cy="317.19" r="10"/></g></g></svg>